<?xml version="1.0" encoding="UTF-8"?>
<!DOCTYPE svg PUBLIC "-//W3C//DTD SVG 1.1//EN" "http://www.w3.org/Graphics/SVG/1.1/DTD/svg11.dtd">
<!-- Creator: CorelDRAW X6 -->
<svg xmlns="http://www.w3.org/2000/svg" xml:space="preserve" width="124px" height="52px" version="1.1" style="shape-rendering:geometricPrecision; text-rendering:geometricPrecision; image-rendering:optimizeQuality; fill-rule:evenodd; clip-rule:evenodd"
viewBox="0 0 294207 123270"
 xmlns:xlink="http://www.w3.org/1999/xlink">
 <defs>
  <style type="text/css">
   <![CDATA[
    .fil0 {fill:#FEFEFE}
    .fil1 {fill:#0C419A}
    .fil2 {fill:#DAE7EC;fill-rule:nonzero}
   ]]>
  </style>
 </defs>
 <g id="Plan_x0020_1">
  <metadata id="CorelCorpID_0Corel-Layer"/>
  <path class="fil0" d="M869 0l292468 0 0 100859c0,12327 -10084,22411 -22411,22411l-247645 0c-12328,0 -22412,-10084 -22412,-22411l0 -100859z"/>
  <g id="_517588296">
   <path class="fil1" d="M155093 103041l0 -21040 -4086 0 0 7136c-247,-218 -1085,-647 -2252,-647 -4630,0 -6293,3062 -6293,7462l0 5894c0,4400 1663,7454 6293,7454 3486,0 6338,-1702 6338,-6259zm-4097 -438c0,2017 -561,3093 -2241,3093 -1453,0 -2252,-970 -2252,-3283l0 -7031c0,-2310 799,-3283 2252,-3283 1450,0 2241,973 2241,3283l0 7221z"/>
   <polygon class="fil1" points="97469,82001 97469,108924 93431,108924 93431,87884 93352,87884 88955,108924 86779,108924 82377,87884 82304,87884 82304,108924 78266,108924 78266,82001 84292,82001 87831,97724 87904,97724 91440,82001 "/>
   <polygon class="fil1" points="159181,108924 159181,88860 163230,88860 163230,108924 "/>
   <path class="fil1" d="M163570 84112c0,1338 -1052,2429 -2361,2429 -1307,0 -2362,-1091 -2362,-2429 0,-1354 1055,-2437 2362,-2437 1309,0 2361,1083 2361,2437z"/>
   <path class="fil1" d="M138713 106798l0 -12865c0,-3654 -2137,-5443 -5900,-5443 -3802,0 -6298,2204 -6514,6264l4055 0c67,-1713 471,-2829 2316,-2829 1332,0 1991,894 1991,2569l6 1573c-6021,844 -8842,3990 -8842,7896 0,2754 1534,5345 4596,5345 2134,0 2807,-552 4442,-1879 28,390 112,839 227,1495l3878 0c-106,-667 -255,-1497 -255,-2126zm-4066 -2924c-850,852 -1596,1870 -2869,1870 -1147,0 -1960,-852 -1960,-2364 0,-2829 2117,-3483 4829,-4111l0 4605z"/>
   <path class="fil1" d="M113540 106798l0 -12865c0,-3654 -2140,-5443 -5923,-5443 -3797,0 -6292,2204 -6511,6264l4060 0c68,-1713 469,-2829 2314,-2829 1343,0 1996,894 1996,2569l0 1573c-6031,844 -8841,3990 -8841,7896 0,2754 1528,5345 4599,5345 2120,0 2801,-552 4444,-1879 28,387 115,839 239,1495l3878 0c-112,-667 -255,-1497 -255,-2126zm-4083 -2924c-844,852 -1599,1870 -2872,1870 -1144,0 -1957,-852 -1957,-2364 0,-2829 2117,-3483 4829,-4111l0 4605z"/>
   <path class="fil1" d="M123391 105769c-2072,-3 -2218,-1192 -2218,-2661l0 -21107 -4058 0 0 20958c0,3394 1467,6243 6307,6243l398 0 0 -3433 -429 0z"/>
   <path class="fil1" d="M179565 99679l0 -3727c0,-4400 -1666,-7462 -6301,-7462 -4630,0 -6282,3062 -6282,7462l0 5894c0,4400 1652,7454 6282,7454 4203,0 5962,-2502 6256,-6259 0,0 28,-359 6,-525l-4019 0 -5 525c-96,1980 -881,2829 -2238,2829 -1447,0 -2235,-967 -2235,-3286l0 -2905 8536 0zm-8536 -4479c0,-2310 788,-3275 2235,-3275 1452,0 2243,965 2243,3275l0 1049 -4478 0 0 -1049z"/>
   <path class="fil1" d="M133722 77817l-4341 0 5016 -26921 5502 0 5376 26921 -4338 0 -825 -6158 -5527 0 -863 6158zm1407 -9689l4431 0 -2190 -11859 -79 0 -2162 11859z"/>
   <path class="fil1" d="M192066 77817l0 -20053 3867 0 0 1702 70 0c976,-1708 3284,-2083 4599,-2083l836 0 0 4366c-729,-191 -1411,-410 -2614,-410 -1363,0 -2706,895 -2706,2690l0 13788 -4052 0z"/>
   <path class="fil1" d="M188160 57764l0 12972c0,4406 -1666,7457 -6298,7457 -4636,0 -6296,-3051 -6296,-7457l0 -12972 4058 0 0 13718c0,2314 788,3284 2238,3284 1447,0 2240,-970 2240,-3284l0 -13718 4058 0z"/>
   <path class="fil1" d="M218479 77814l0 -12967c0,-4268 1666,-7464 6304,-7464 4630,0 6290,3196 6290,7464l0 12967 -4052 0 0 -13690c0,-2148 -853,-3152 -2238,-3152 -1416,0 -2258,1004 -2258,3152l0 13690 -4046 0z"/>
   <path class="fil1" d="M214937 75700l0 -12872c0,-3659 -2131,-5445 -5894,-5445 -3803,0 -6298,2198 -6512,6264l4052 0c71,-1710 472,-2829 2325,-2829 1327,0 1980,897 1980,2571l3 1562c-6027,850 -8839,3999 -8839,7911 0,2754 1537,5342 4602,5342 2120,0 2804,-555 4425,-1873 28,378 115,835 241,1486l3872 0c-109,-665 -255,-1489 -255,-2117zm-4060 -2931c-847,850 -1604,1874 -2872,1874 -1144,0 -1949,-859 -1949,-2362 0,-2835 2112,-3491 4821,-4111l0 4599z"/>
   <path class="fil1" d="M123377 74665c-2078,-6 -2229,-1192 -2229,-2656l0 -21110 -4047 0 0 20956c0,3393 1464,6242 6307,6242l387 0 0 -3432 -418 0z"/>
   <path class="fil1" d="M150951 62422c0,-1043 754,-1604 1856,-1604 1374,0 1938,771 2171,2498l3623 -325c-371,-2583 -1638,-5608 -5987,-5608 -3178,0 -5673,2198 -5673,5370 0,5482 7955,6789 7955,10255 0,1124 -791,1758 -1901,1758 -1932,0 -2532,-1486 -2804,-3177l-3752 631c440,3805 2807,5973 6517,5973 3452,0 5947,-1829 5947,-5407 0,-5970 -7952,-7235 -7952,-10364z"/>
   <path class="fil1" d="M165062 62422c0,-1043 757,-1604 1850,-1604 1366,0 1932,771 2168,2498l3615 -325c-365,-2583 -1630,-5608 -5965,-5608 -3180,0 -5670,2198 -5670,5370 0,5482 7933,6789 7933,10255 0,1124 -788,1758 -1890,1758 -1927,0 -2524,-1486 -2796,-3177l-3746 631c434,3805 2804,5973 6506,5973 3440,0 5942,-1829 5942,-5407 0,-5970 -7947,-7235 -7947,-10364z"/>
   <path class="fil1" d="M262141 68571l0 -3724c0,-4399 -1661,-7464 -6299,-7464 -4632,0 -6298,3065 -6298,7464l0 5889c0,4406 1666,7457 6298,7457 4195,0 5962,-2493 6259,-6257 0,0 20,-358 0,-524l-4021 0 -6 519c-106,1991 -894,2835 -2232,2835 -1452,0 -2246,-970 -2246,-3284l0 -2911 8545 0zm-8545 -4475c0,-2314 794,-3278 2246,-3278 1447,0 2244,964 2244,3278l0 1046 -4490 0 0 -1046z"/>
   <path class="fil1" d="M125301 50899l0 3814 1169 0c-376,970 -1161,3051 -1161,3051l1977 0 1708 -3051 0 -3814 -3693 0z"/>
   <path class="fil1" d="M242822 71182l-5 749c-104,1991 -878,2835 -2227,2835 -1452,0 -2246,-970 -2246,-3284l0 -7386c0,-2314 794,-3278 2246,-3278 1439,0 2241,964 2241,3278l0 751 4057 0c0,-4399 -1674,-7464 -6298,-7464 -4641,0 -6301,3065 -6301,7464l0 5889c0,4406 1660,7457 6301,7457 4947,0 6270,-3593 6270,-7011l-4038 0z"/>
   <path class="fil1" d="M42442 64085c227,-499 336,-1164 204,-1831 -204,-988 -891,-1445 -1744,-1274 -774,155 -1147,648 -1368,1742 -250,1318 -822,2218 -1988,2451 -1302,263 -2465,-505 -2760,-1960 -151,-749 -64,-1352 82,-1719l933 84c-115,269 -246,813 -115,1492 205,1015 973,1267 1543,1149 776,-151 1074,-687 1309,-1806 306,-1379 850,-2145 2078,-2389 1296,-263 2591,351 2945,2112 148,723 56,1556 -157,2016l-962 -67z"/>
   <path class="fil1" d="M32066 53563l1531 1422 20 796 -1523 -1018 -28 -1200zm6481 -356l73 2947 3081 -75 -89 -3304 922 -28 118 4302 -8536 221 -112 -4122 925 -28 87 3135 2692 -70 -78 -2950 917 -28z"/>
   <path class="fil1" d="M43188 45305c145,373 241,1133 101,2050 -317,2125 -2059,3485 -4843,3068 -2653,-404 -4190,-2269 -3839,-4608 140,-925 457,-1497 642,-1733l855 384c-255,328 -482,825 -583,1456 -264,1766 827,3132 3040,3460 2080,317 3555,-547 3833,-2369 93,-606 42,-1231 -112,-1652l906 -56z"/>
   <path class="fil1" d="M35922 40504l4728 1716c2496,906 3830,138 4363,-1326 558,-1554 -22,-3079 -2484,-3971l-4692 -1705 -342 945 4764 1722c1764,639 2303,1618 1916,2670 -345,956 -1369,1393 -3155,743l-4756 -1728 -342 934z"/>
   <path class="fil1" d="M39915 31329c160,-483 474,-1142 819,-1717 547,-894 1096,-1368 1755,-1519 508,-129 1125,-17 1703,328 947,580 1250,1517 1104,2350l28 19c494,-373 1195,-353 2053,-56 1150,404 1946,679 2302,718l-530 875c-266,-17 -984,-255 -2002,-634 -1121,-420 -1719,-297 -2215,454l-482 786 3163 1926 -513 841 -7185 -4371zm3825 1172l522 -861c544,-897 342,-1806 -497,-2305 -939,-578 -1721,-219 -2260,673 -247,401 -373,707 -420,880l2655 1613z"/>
   <polygon class="fil1" points="45350,23283 51912,28749 51278,29514 44713,24052 "/>
   <polygon class="fil1" points="54668,25838 55394,25159 50226,19596 51931,18006 51289,17319 47158,21161 47792,21848 49497,20266 "/>
   <path class="fil1" d="M59463 17128l-2453 1629 1705 2566 2748 -1831 513 774 -3578 2381 -4731 -7109 3438 -2288 510 774 -2608 1730 1492 2246 2462 -1632 502 760zm-3741 -5303l-389 2056 -665 440 56 -1831 998 -665z"/>
   <path class="fil1" d="M66995 16382c522,160 1198,191 1840,-22 956,-314 1335,-1049 1063,-1885 -253,-740 -783,-1060 -1893,-1147 -1338,-92 -2300,-546 -2675,-1674 -418,-1267 207,-2515 1612,-2978 735,-241 1346,-230 1725,-126l25 942c-280,-87 -836,-154 -1492,65 -990,322 -1144,1107 -962,1663 250,757 811,978 1955,1085 1402,140 2229,586 2622,1775 412,1259 -42,2619 -1753,3180 -695,235 -1542,241 -2019,76l-48 -954z"/>
   <path class="fil1" d="M75924 15611c-2008,292 -3645,-1239 -4013,-3794 -387,-2684 839,-4655 2852,-4944 2075,-300 3660,1276 4019,3780 417,2900 -937,4678 -2850,4958l-8 0zm-87 -894c1545,-219 2190,-1941 1913,-3862 -242,-1680 -1279,-3323 -2903,-3085 -1621,230 -2184,2039 -1918,3873 255,1775 1363,3295 2897,3074l11 0z"/>
   <path class="fil1" d="M86308 14974c-359,188 -1102,357 -2027,312 -2148,-101 -3685,-1694 -3553,-4498 123,-2681 1825,-4408 4186,-4299 934,42 1534,303 1792,468l-297 884c-348,-222 -872,-393 -1506,-421 -1789,-90 -3031,1138 -3138,3379 -92,2095 917,3477 2757,3561 611,28 1231,-84 1632,-280l154 894z"/>
   <polygon class="fil1" points="89973,7263 88386,15659 89356,15838 90946,7454 "/>
   <path class="fil1" d="M93980 14234l-1626 2277 -959 -334 5249 -7212 1119 393 -347 8911 -993 -344 112 -2805 -2555 -886zm2648 11l89 -2571c37,-578 93,-1097 152,-1596l-34 -14c-261,438 -547,898 -861,1341l-1517 2083 2171 757z"/>
   <polygon class="fil1" points="103296,11733 104165,12218 100430,18856 103268,20448 102814,21253 99112,19172 "/>
   <polygon class="fil1" points="109875,21618 107561,19787 105651,22195 108237,24248 107662,24972 104294,22302 109594,15611 112833,18180 112261,18903 109805,16954 108128,19066 110441,20903 "/>
   <path class="fil1" d="M56942 40723l0 990 6273 0 17 -17c303,-370 491,-668 701,-973l-6991 0z"/>
   <path class="fil1" d="M59581 43709c656,1461 146,3553 -774,4602 1641,2081 5754,1217 7961,622 603,-126 1074,-1203 1644,-785 151,121 1141,-925 1015,65 0,594 -261,1239 -884,1469 -460,171 -1797,569 -1797,569 -2361,746 -3637,1074 -5998,2207 -1088,575 -808,2667 -654,3427 143,771 872,3494 230,4860 -519,1116 -2355,2142 -2383,3514 0,597 990,1315 415,1808 -365,314 -645,362 -867,152 0,0 -1778,-1823 -1556,-2448 -17,-242 1999,-3122 1136,-4420 -480,452 -528,1660 -1498,2103 -463,222 -1116,-317 -1511,-87 -152,87 -132,704 -286,844 -143,155 -777,138 -923,-140 -365,-751 -219,-2027 -87,-2661 205,-934 2151,87 1520,-1239 -230,-483 -530,-1122 -510,-2143 19,-785 670,-1688 30,-2092 -723,-356 -2431,-1113 -2462,-2008 -199,-2134 3747,-2134 4650,-4040 0,-926 -1153,-1703 -920,-3161 112,-740 681,-1584 1632,-1710 1192,-163 1921,-28 2877,692z"/>
   <path class="fil1" d="M101975 76709c-1231,-291 -2625,-1166 -3314,-2243 -488,-746 -836,-1596 -1229,-2468 -1337,-2925 -2103,-6133 -2978,-7207 -1531,-1895 -4503,-4537 -6522,-5844 -592,-384 -1142,-667 -1644,-877 491,-2373 376,-4885 376,-4885 0,-488 11,-502 182,-704 519,-410 859,-906 701,-1683 -8,-112 -440,-1040 -563,-1239 721,286 3898,1040 4820,970 1582,-106 5337,-2720 5914,-3115 413,-244 654,-300 867,-365 210,-59 757,-401 880,-740 51,-152 -106,-1243 -488,-1310 -165,-11 -597,250 -740,208 -98,-31 -191,-197 -266,-197 -213,-5 -426,326 -522,491 -132,208 -182,589 -328,766 -255,331 -3906,1365 -5115,1935 -213,98 -434,176 -648,109 -959,-297 -4817,-2507 -6343,-2190 -482,101 -1231,370 -1567,20 -174,-197 -269,-500 -124,-800 163,-342 968,-384 1122,-779 182,-438 -104,-1301 -95,-1349 0,-168 193,-250 171,-393 -20,-151 -219,-322 -441,-639 -232,-317 -297,-1127 -510,-1483 48,-107 194,-845 -659,-1344 -869,-499 -2280,-611 -3079,90 -446,398 -1051,250 -1523,494 -911,479 -328,1433 -1825,2781 -651,592 -269,1722 -115,1980 -637,1186 491,2580 1500,2347 323,317 544,455 900,438 12,39 20,75 40,112 -230,84 -713,331 -934,437 -575,298 -900,668 -1428,1178 -1702,1646 -4217,4201 -10210,7207 -681,418 -2641,238 -2641,665 134,199 558,417 558,417 11,239 -729,342 -1125,427 -345,190 328,471 578,703 1335,244 2027,-56 3160,-1003 4549,-1770 7942,-3497 11638,-5901 779,-513 1228,40 1851,2384 252,911 -960,1652 -1417,2939 -521,1438 -462,2518 -78,3354 -424,934 -1727,2173 -1727,2173 0,0 -3113,2566 -4681,4122 -1351,1349 -3003,1032 -4259,1635 -1290,623 -2460,1607 -3556,2510 -796,656 -1593,1248 -2658,1685 -413,168 -606,222 -1046,278 -550,70 -875,580 -828,1049 37,426 424,1382 836,2212 222,452 721,1503 1374,1643 452,93 1380,275 1590,-131 280,-533 -909,-688 -987,-1391 -59,-443 -107,-1181 36,-1610 258,-740 1327,-1253 1961,-1598 1968,-1063 7778,-2434 9517,-2953 2504,-1099 4495,-2000 6116,-3068 1441,-878 2614,-2257 3517,-3404 2142,1062 5311,2394 7414,3202 1237,471 566,1268 1259,3048 488,1271 1371,2204 4302,5673 420,569 -31,968 64,1601 107,696 443,715 1074,701 597,-14 1195,0 1792,0 757,0 1708,6 2456,-5 278,-3 828,-90 828,-497 0,-448 -811,-482 -1181,-569z"/>
   <path class="fil1" d="M113554 38238c-2392,-1539 -5129,-4259 -7824,-3811 -1425,-109 -261,-1621 -648,-2212 -650,-1156 -729,-1585 -3241,-1346 -704,73 -1260,328 -1520,931 -233,673 -20,510 -185,1152 -200,631 -951,920 -228,1394 57,207 48,547 0,1203 -36,457 528,418 766,564 -2869,2100 -8026,1727 -10549,87 -474,-320 -2098,-253 -2106,-71 8,424 1057,528 1449,974 -182,58 -488,-23 -353,255 132,263 2064,611 2075,611 1478,1004 3783,1486 5586,1842 3651,536 4686,662 5168,3015 488,2372 -89,4557 -617,7796 -440,2896 -179,4697 281,7529 87,530 367,1394 106,1615 -510,457 -1842,836 -2420,1343 -252,828 2075,292 3629,373 737,62 914,-726 914,-1197 132,-4439 595,-5822 1304,-8595 412,2389 1125,6422 1652,8842 -606,712 -2210,1354 -1817,1750 462,448 1281,364 1693,263 999,-233 1557,-549 2277,-1206 0,0 805,-9716 544,-14523 -143,-2675 3141,-4559 4476,-6951 328,-612 317,-1158 -412,-1627zm-4120 5115c135,-998 -471,-3668 -157,-4627l2460 928c-393,617 -1812,2350 -2303,3699z"/>
   <path class="fil1" d="M82595 30092c1055,230 3231,1284 3514,1382 286,90 914,847 1133,931 123,34 162,54 269,-115 135,-173 508,169 948,107 291,-59 645,-780 597,-869 -241,-351 -1604,-906 -2296,-1004 -758,-365 -2485,-1481 -3868,-1980 -3151,-1110 -6466,-2754 -9509,-939 -1267,-536 -1292,-2176 -3502,-2008 -1049,81 -1809,892 -2058,1615 -261,729 -362,1632 109,2535 258,488 766,729 1273,892 250,95 525,148 783,230 350,137 415,426 832,364 306,-36 556,-95 875,-75 295,19 1041,137 1156,-258 14,0 19,0 33,5 28,724 -115,2796 -485,2990 -516,109 -735,-214 -1966,-570 -1222,-345 -4088,-704 -4136,1495 -95,3528 325,4663 -2114,7653 -421,521 -1133,544 -721,1085 325,336 875,84 1133,-118 617,1570 2712,-771 3160,-1133 951,-740 -112,-1391 334,-2109 766,-1489 1952,-2108 2215,-3230 1220,959 2715,1716 4240,1590 637,-121 1209,-351 1913,-1077 723,-729 911,-4018 970,-5606 132,-3224 2266,-2428 5168,-1783z"/>
   <path class="fil1" d="M86002 28726l345 177c0,0 943,510 595,401l838 412 14846 0 0 -990 -16624 0zm-29060 0l0 990 9874 0c-17,-277 -34,-622 -48,-990l-9826 0z"/>
   <path class="fil1" d="M95786 77250c0,0 20,-288 62,-552l-30992 0c210,362 255,707 202,987l30894 0c-48,-146 -135,-241 -166,-435zm-38844 -552l0 987 3421 0c-249,-353 -445,-709 -574,-987l-2847 0z"/>
   <path class="fil1" d="M95719 64707l446 987 6410 0 0 -987 -6856 0zm-35981 987l11907 0c193,-174 606,-530 1119,-987l-13351 0c162,342 314,690 325,987z"/>
   <path class="fil1" d="M99936 52728l-11707 0c-104,134 -194,305 -334,403 0,0 -19,228 -47,572l12049 0c-8,-84 -19,-171 -19,-266 0,-219 47,-491 58,-709zm-38594 804c-28,31 -50,115 -67,171l7369 0c572,-333 1100,-670 1590,-987l-6713 0c-1108,424 -2170,816 -2179,816z"/>
   <path class="fil1" d="M96535 41009c-401,-76 -805,-197 -1206,-286l-10460 0c65,202 135,390 135,390 0,0 126,415 258,588l8 12 14627 0c-538,-250 -1506,-427 -3362,-704zm-27291 -269l0 5c59,199 143,550 113,968l6371 0 622 -990 -7097 0 -9 17z"/>
  </g>
  <path class="fil2" d="M294207 68770l0 35168c0,5317 -2395,10151 -6254,13654 -3856,3505 -9178,5678 -15030,5678l-251639 0c-5852,0 -11175,-2173 -15031,-5678 -3858,-3503 -6253,-8337 -6253,-13654l0 -35168 2356 0 0 35168c0,4731 2131,9032 5557,12145 3427,3113 8164,5048 13371,5048l251639 0c5207,0 9943,-1935 13370,-5048 3427,-3113 5558,-7414 5558,-12145l0 -35168 2356 0z"/>
 </g>
</svg>
