<?xml version="1.0" encoding="UTF-8"?>
<!DOCTYPE svg PUBLIC "-//W3C//DTD SVG 1.0//EN" "http://www.w3.org/TR/2001/REC-SVG-20010904/DTD/svg10.dtd">
<!-- Creator: CorelDRAW X7 -->
<svg xmlns="http://www.w3.org/2000/svg" xml:space="preserve" width="127px" height="42px" version="1.0" style="shape-rendering:geometricPrecision; text-rendering:geometricPrecision; image-rendering:optimizeQuality; fill-rule:evenodd; clip-rule:evenodd"
viewBox="0 0 16762 5507"
 xmlns:xlink="http://www.w3.org/1999/xlink">
 <defs>
  <style type="text/css">
   <![CDATA[
    .fil0 {fill:none}
    .fil2 {fill:#005EA8}
    .fil1 {fill:#005DA8;fill-rule:nonzero}
   ]]>
  </style>
 </defs>
 <rect class="fil0" width="16762" height="5507"/>
 <g id="_335148920">
  <polygon class="fil1" points="13785,5387 13785,5069 13949,5069 13949,5387 "/>
  <path id="1" class="fil1" d="M14584 5387l0 -1562 -273 0 0 -153 273 0 0 -291c0,-240 49,-426 148,-559 98,-133 233,-200 405,-200 72,0 143,11 213,34 70,22 127,52 172,89l-67 135c-35,-27 -78,-50 -129,-67 -51,-18 -104,-26 -159,-26 -127,0 -225,50 -293,151 -69,101 -103,247 -103,439l0 295 553 0 0 153 -553 0 0 1562 -187 0z"/>
  <path id="2" class="fil1" d="M16661 3612c-177,5 -330,57 -459,155 -130,99 -221,234 -273,406l0 1214 -187 0 0 -1943 176 0 0 478c67,-137 156,-248 267,-334 111,-86 230,-135 357,-148 25,0 47,0 67,-1 20,-2 38,-2 52,-2l0 175z"/>
  <g>
   <path class="fil2" d="M6003 1412c-309,0 -590,87 -803,275 -243,-195 -572,-275 -914,-275 -671,0 -1210,405 -1210,1365l0 2584 805 0c0,0 -6,-2414 -6,-2632 0,-217 91,-610 417,-610 327,0 484,169 484,629l0 2613 822 0c0,0 -5,-2414 -5,-2631 0,-218 90,-611 417,-611 327,0 484,170 484,629l0 2613 810 0 0 -2752c0,-890 -629,-1197 -1301,-1197z"/>
   <path class="fil2" d="M12690 87c-265,0 -479,214 -479,477 0,264 214,478 479,478 264,0 477,-214 477,-478 0,-263 -213,-477 -477,-477z"/>
   <polygon class="fil2" points="12268,5375 13092,5375 13092,1484 12268,1484 "/>
   <path class="fil2" d="M11349 4318l0 -4170 -806 0 0 4134c0,150 -7,1128 1149,1128 151,0 172,-28 172,-28l0 -643 -157 7c-229,0 -358,-157 -358,-428z"/>
   <path class="fil2" d="M8868 1410c-1170,0 -1234,945 -1234,1473l0 1262c0,465 218,1311 1269,1311 1050,0 1219,-924 1219,-1318l-782 0c0,0 42,642 -437,642 -479,0 -458,-537 -458,-606l0 -585 1683 0 0 -699c0,-557 -91,-1480 -1260,-1480zm-423 1488l0 -191c0,-528 268,-620 429,-620 163,0 458,-21 458,811l-887 0z"/>
   <path class="fil2" d="M2616 2548c0,-353 -72,-1140 -1192,-1140 -1120,0 -1271,871 -1271,1232l780 -20c0,-281 170,-543 452,-543 281,0 432,236 432,504 0,269 -14,282 -14,282 0,0 -471,78 -1074,373 -602,294 -700,799 -700,1245 0,445 341,976 930,976 589,0 871,-361 871,-361 20,216 72,269 72,269l773 0c-33,-33 -59,-296 -59,-577l0 -2240zm-832 1874c0,0 -248,360 -505,360 -255,0 -445,-177 -445,-472 0,-294 138,-543 576,-694 0,0 223,-85 374,-105l0 911z"/>
  </g>
 </g>
</svg>
